{"title":"Creed 2015 DVDScr XVID AC3 HQ Hive-CM8","uid":13049253,"size":1874704668,"categoryP":"video","categoryS":"movies","magnet":"?xt=urn:btih:f513997129bafe1d0f28cfd4b61dbc6938121b4c&amp;dn=Creed+2015+DVDScr+XVID+AC3+HQ+Hive-CM8&amp;tr=udp%3A%2F%2Ftracker.leechers-paradise.org%3A6969&amp;tr=udp%3A%2F%2Fzer0day.ch%3A1337&amp;tr=udp%3A%2F%2Fopen.demonii.com%3A1337&amp;tr=udp%3A%2F%2Ftracker.coppersurfer.tk%3A6969&amp;tr=udp%3A%2F%2Fexodus.desync.com%3A6969","seeders":4,"leechers":3,"uploader":"makintos13","files":3,"time":1450605683,"description":"screens:\r\n \nhttp://imgmak.com/K7J \nhttp://imgmak.com/K7W \nhttp://imgmak.com/K7d \nhttp://imgmak.com/K7s\r\n\r\nCreed.2015.DVDScr.XVID.AC3.HQ.Hive-CM8\r\n\r\nThx Hive\r\n\r\nCM8 Doing It Right The First Time\r\n\r\nSource: DVD-Screener Big Thanks M8\r\n\r\nNotes:\r\n\r\nDVDScreener 2 of 40\r\nwill do them all one after each other, 2nd hot title\r\n\r\nEncode:\r\n\r\nquality was perfect on this\r\nAll digital watermarks are removed,had to crop 10 lines to get it done safely\r\nFixed brightness,contrast and rgb, and added sharpness\r\n\r\ngot very nice\r\nenjoy\r\n\r\nVideo: 720x288 @bitrate 1600 2pass\r\nAudio: English AC3 2.0 Stereo\r\nSample: yes included\r\n \nhttp://www.imdb.com/title/tt3076658/\r\n\r\nGeneral\r\nComplete name: Creed.2015.DVDScr.XVID.AC3.HQ.Hive-CM8.avi\r\nFormat: AVI\r\nFormat/Info: Audio Video Interleave\r\nFile size: 1.73 GiB\r\nDuration: 2h 13mn\r\nOverall bit rate: 1 865 Kbps\r\nWriting application: Nandub v1.0rc2\r\nWriting library: Nandub build 1853/release\r\n\r\nVideo\r\nID: 0\r\nFormat: MPEG-4 Visual\r\nFormat profile: Advanced   \r\nFormat settings, BVOP: 2\r\nFormat settings, QPel: Yes\r\nFormat settings, GMC: No warppoints\r\nFormat settings, Matrix: Default (H.263)\r\nMuxing mode: Packed bitstream\r\nCodec ID: XVID\r\nCodec ID/Hint: XviD\r\nDuration: 2h 13mn\r\nBit rate: 1 597 Kbps\r\nWidth: 720 pixels\r\nHeight: 288 pixels\r\nDisplay aspect ratio: 2.500\r\nFrame rate: 29.970 fps\r\nColor space: YUV\r\nChroma subsampling: 4:2:0\r\nBit depth: 8 bits\r\nScan type: Progressive\r\nCompression mode: Lossy\r\nBits/(Pixel*Frame): 0.257\r\nStream size: 1.49 GiB (86%)\r\nWriting library: XviD 1.2.1 (UTC 2008-12-04)\r\n\r\nAudio\r\nID: 1\r\nFormat: AC-3\r\nFormat/Info: Audio Coding 3\r\nMode extension: CM (complete main)\r\nFormat settings, Endianness: Big\r\nCodec ID: 2000\r\nDuration: 2h 13mn\r\nBit rate mode: Constant\r\nBit rate: 256 Kbps\r\nChannel(s): 2 channels\r\nChannel positions: Front: L R\r\nSampling rate: 48.0 KHz\r\nBit depth: 16 bits\r\nCompression mode: Lossy\r\nStream size: 244 MiB (14%)\r\nAlignment: Split accross interleaves\r\nInterleave, duration: 33 ms (1.00 video frame)\r\nInterleave, preload duration: 500 ms","torrent":{"xt":"urn:btih:f513997129bafe1d0f28cfd4b61dbc6938121b4c","amp;dn":"Creed+2015+DVDScr+XVID+AC3+HQ+Hive-CM8","amp;tr":["udp%3A%2F%2Ftracker.leechers-paradise.org%3A6969","udp%3A%2F%2Fzer0day.ch%3A1337","udp%3A%2F%2Fopen.demonii.com%3A1337","udp%3A%2F%2Ftracker.coppersurfer.tk%3A6969","udp%3A%2F%2Fexodus.desync.com%3A6969"],"infoHash":"f513997129bafe1d0f28cfd4b61dbc6938121b4c","infoHashBuffer":{"type":"Buffer","data":[245,19,153,113,41,186,254,29,15,40,207,212,182,29,188,105,56,18,27,76]},"announce":[],"urlList":[]}}